<?xml version="1.0" encoding="utf-8"?>
<!-- Generator: Adobe Illustrator 16.0.0, SVG Export Plug-In . SVG Version: 6.00 Build 0)  -->
<!DOCTYPE svg PUBLIC "-//W3C//DTD SVG 1.1//EN" "http://www.w3.org/Graphics/SVG/1.1/DTD/svg11.dtd">
<svg version="1.1" id="Capa_1" xmlns="http://www.w3.org/2000/svg" xmlns:xlink="http://www.w3.org/1999/xlink" x="0px" y="0px"
	 width="612.029px" height="612.028px" viewBox="291.971 -208.3 612.029 612.028"
	 enable-background="new 291.971 -208.3 612.029 612.028" xml:space="preserve">
<g>
	<path fill="#C7CED3" d="M846.507-208.3h-172.48c-31.673,0-75.739,18.246-98.117,40.624L308.754,99.479
		c-22.377,22.377-22.377,58.985,0,81.363l206.104,206.104c22.378,22.378,58.985,22.378,81.248,0l267.27-267.154
		C885.754,97.413,904,53.231,904,21.673v-172.48C904-182.479,878.18-208.3,846.507-208.3z M770.193-17.114
		c-31.673,0-57.379-25.706-57.379-57.379s25.706-57.378,57.379-57.378s57.379,25.706,57.379,57.378S801.866-17.114,770.193-17.114z"
		/>
</g>
</svg>
